name Run_500 04_newCOP3_v24.mot
datacolumns 19
datarows 117
range 2.77 2.828
DataType=double
version=3
OpenSimVersion=4.3-2021-08-27-4bc7ad9
endheader
time	R_ground_force_vx	R_ground_force_vy	R_ground_force_vz	R_ground_force_px	R_ground_force_py	R_ground_force_pz	L_ground_force_vx	L_ground_force_vy	L_ground_force_vz	L_ground_force_px	L_ground_force_py	L_ground_force_pz	R_ground_torque_x	R_ground_torque_y	R_ground_torque_z	L_ground_torque_x	L_ground_torque_y	L_ground_torque_z
2.77	-15.003317	64.986946	-9.662374	1.318449	0	-0.44127	0	0	0	0	0	0	-0	2.870361	-0	0	0	0
2.7705	-15.873859	69.374886	-9.810935000000001	1.318388	0	-0.442807	0	0	0	0	0	0	-0	2.831077	-0	0	0	0
2.771	-16.773619	74.018036	-9.950385000000001	1.318317	0	-0.444225	0	0	0	0	0	0	-0	2.79014	-0	0	0	0
2.7715	-17.702059	78.927002	-10.07962	1.31824	0	-0.445527	0	0	0	0	0	0	-0	2.747548	-0	0	0	0
2.772	-18.658508	84.112465	-10.197515	1.31816	0	-0.446718	0	0	0	0	0	0	-0	2.703296	-0	0	0	0
2.7725	-19.642151	89.585106	-10.302921	1.318078	0	-0.447803	0	0	0	0	0	0	-0	2.657383	-0	0	0	0
2.773	-20.652031	95.35556800000001	-10.394678	1.317997	0	-0.448788	0	0	0	0	0	0	-0	2.609809	-0	0	0	0
2.7735	-21.68704	101.434441	-10.471612	1.317917	0	-0.449675	0	0	0	0	0	0	-0	2.560575	-0	0	0	0
2.774	-22.745928	107.832191	-10.532542	1.31784	0	-0.450471	0	0	0	0	0	0	-0	2.509684	-0	0	0	0
2.7745	-23.82729	114.559097	-10.57629	1.317765	0	-0.45118	0	0	0	0	0	0	-0	2.457142	-0	0	0	0
2.775	-24.929577	121.625244	-10.601681	1.317693	0	-0.451806	0	0	0	0	0	0	-0	2.402953	-0	0	0	0
2.7755	-26.051098	129.040421	-10.607549	1.317623	0	-0.452354	0	0	0	0	0	0	-0	2.347127	-0	0	0	0
2.776	-27.190025	136.814102	-10.592748	1.317554	0	-0.452827	0	0	0	0	0	0	-0	2.289673	-0	0	0	0
2.7765	-28.344395	144.955368	-10.556151	1.317487	0	-0.45323	0	0	0	0	0	0	-0	2.230603	-0	0	0	0
2.777	-29.512125	153.472839	-10.496663	1.317419	0	-0.453567	0	0	0	0	0	0	-0	2.16993	-0	0	0	0
2.7775	-30.691023	162.374634	-10.413222	1.317351	0	-0.453843	0	0	0	0	0	0	-0	2.107669	-0	0	0	0
2.778	-31.878792	171.66832	-10.30481	1.31728	0	-0.454059	0	0	0	0	0	0	-0	2.043838	-0	0	0	0
2.7785	-33.073055	181.360779	-10.17045	1.317207	0	-0.454222	0	0	0	0	0	0	-0	1.978456	-0	0	0	0
2.779	-34.271362	191.458237	-10.009229	1.317128	0	-0.454333	0	0	0	0	0	0	-0	1.911544	-0	0	0	0
2.7795	-35.471214	201.966141	-9.820285	1.317045	0	-0.454396	0	0	0	0	0	0	-0	1.843125	-0	0	0	0
2.78	-36.670078	212.889145	-9.602828000000001	1.316954	0	-0.454416	0	0	0	0	0	0	-0	1.773223	-0	0	0	0
2.7805	-37.865414	224.230957	-9.356139000000001	1.316855	0	-0.454394	0	0	0	0	0	0	-0	1.701865	-0	0	0	0
2.781	-39.054688	235.9944	-9.079575999999999	1.316747	0	-0.454334	0	0	0	0	0	0	-0	1.629081	-0	0	0	0
2.7815	-40.235394	248.181244	-8.772584999999999	1.316628	0	-0.454239	0	0	0	0	0	0	-0	1.554901	-0	0	0	0
2.782	-41.40509	260.792236	-8.434697	1.316498	0	-0.454111	0	0	0	0	0	0	-0	1.479357	-0	0	0	0
2.7825	-42.561413	273.827026	-8.065541	1.316355	0	-0.453954	0	0	0	0	0	0	-0	1.402485	-0	0	0	0
2.783	-43.702099	287.284058	-7.664845	1.316198	0	-0.45377	0	0	0	0	0	0	-0	1.32432	-0	0	0	0
2.7835	-44.825012	301.160553	-7.232441	1.316027	0	-0.453562	0	0	0	0	0	0	-0	1.244902	-0	0	0	0
2.784	-45.928177	315.452576	-6.768268	1.315841	0	-0.453332	0	0	0	0	0	0	-0	1.16427	-0	0	0	0
2.7845	-47.009781	330.154816	-6.27238	1.315639	0	-0.453081	0	0	0	0	0	0	-0	1.082467	-0	0	0	0
2.785	-48.068211	345.260681	-5.744943	1.31542	0	-0.452814	0	0	0	0	0	0	-0	0.999536	-0	0	0	0
2.7855	-49.102074	360.762299	-5.186242	1.315185	0	-0.452531	0	0	0	0	0	0	-0	0.915524	-0	0	0	0
2.786	-50.110207	376.65033	-4.596684	1.314932	0	-0.452234	0	0	0	0	0	0	-0	0.830476	-0	0	0	0
2.7865	-51.091702	392.914154	-3.976794	1.314661	0	-0.451926	0	0	0	0	0	0	-0	0.744444	-0	0	0	0
2.787	-52.04591	409.541748	-3.327221	1.314372	0	-0.451609	0	0	0	0	0	0	-0	0.6574759999999999	-0	0	0	0
2.7875	-52.972473	426.519714	-2.648738	1.314064	0	-0.451283	0	0	0	0	0	0	-0	0.569626	-0	0	0	0
2.788	-53.871307	443.833344	-1.942238	1.313739	0	-0.450952	0	0	0	0	0	0	-0	0.480947	-0	0	0	0
2.7885	-54.742634	461.466492	-1.208737	1.313395	0	-0.450616	0	0	0	0	0	0	-0	0.391493	-0	0	0	0
2.789	-55.586967	479.401825	-0.449371	1.313034	0	-0.450276	0	0	0	0	0	0	-0	0.301322	-0	0	0	0
2.7895	-56.405125	497.620575	0.334609	1.312654	0	-0.449936	0	0	0	0	0	0	-0	0.210491	-0	0	0	0
2.79	-57.198215	516.102905	1.141834	1.312257	0	-0.449594	0	0	0	0	0	0	-0	0.119058	-0	0	0	0
2.7905	-57.967648	534.8276980000001	1.970828	1.311842	0	-0.449254	0	0	0	0	0	0	-0	0.027083	-0	0	0	0
2.791	-58.715107	553.772705	2.820008	1.31141	0	-0.448916	0	0	0	0	0	0	0	-0.065372	0	0	0	0
2.7915	-59.442558	572.914612	3.687689	1.310962	0	-0.448582	0	0	0	0	0	0	0	-0.158246	0	0	0	0
2.792	-60.152218	592.229187	4.572092	1.310498	0	-0.448251	0	0	0	0	0	0	0	-0.251477	0	0	0	0
2.7925	-60.846554	611.691284	5.471349	1.310018	0	-0.447927	0	0	0	0	0	0	0	-0.345002	0	0	0	0
2.793	-61.528244	631.27478	6.38351	1.309523	0	-0.447608	0	0	0	0	0	0	0	-0.438756	0	0	0	0
2.7935	-62.20018	650.953125	7.306553	1.309013	0	-0.447297	0	0	0	0	0	0	0	-0.532676	0	0	0	0
2.794	-62.865425	670.698853	8.238386999999999	1.30849	0	-0.446994	0	0	0	0	0	0	0	-0.6266969999999999	0	0	0	0
2.7945	-63.527199	690.484253	9.176868000000001	1.307954	0	-0.4467	0	0	0	0	0	0	0	-0.720754	0	0	0	0
2.795	-64.18885	710.280945	10.1198	1.307406	0	-0.446415	0	0	0	0	0	0	0	-0.814783	0	0	0	0
2.7955	-64.853813	730.060486	11.064951	1.306845	0	-0.446139	0	0	0	0	0	0	0	-0.908717	0	0	0	0
2.796	-65.525612	749.794128	12.010059	1.306274	0	-0.445875	0	0	0	0	0	0	0	-1.002493	0	0	0	0
2.7965	-66.20779400000001	769.453186	12.952847	1.305692	0	-0.445622	0	0	0	0	0	0	0	-1.096046	0	0	0	0
2.797	-66.903938	789.009033	13.891024	1.3051	0	-0.44538	0	0	0	0	0	0	0	-1.189311	0	0	0	0
2.7975	-67.617592	808.433167	14.822306	1.304499	0	-0.445149	0	0	0	0	0	0	0	-1.282225	0	0	0	0
2.798	-68.352272	827.697449	15.74442	1.30389	0	-0.444931	0	0	0	0	0	0	0	-1.374724	0	0	0	0
2.7985	-69.111397	846.774353	16.655117	1.303273	0	-0.444725	0	0	0	0	0	0	0	-1.466746	0	0	0	0
2.799	-69.898308	865.636658	17.552183	1.302649	0	-0.444531	0	0	0	0	0	0	0	-1.558229	0	0	0	0
2.7995	-70.71620900000001	884.258118	18.433445	1.302018	0	-0.44435	0	0	0	0	0	0	0	-1.649112	0	0	0	0
2.8	-71.568169	902.613037	19.296789	1.301381	0	-0.444181	0	0	0	0	0	0	0	-1.739336	0	0	0	0
2.8005	-72.45706199999999	920.6769410000001	20.140158	1.300739	0	-0.444025	0	0	0	0	0	0	0	-1.82884	0	0	0	0
2.801	-73.385582	938.426208	20.961576	1.300092	0	-0.443881	0	0	0	0	0	0	0	-1.91757	0	0	0	0
2.8015	-74.356201	955.838379	21.759144	1.299439	0	-0.44375	0	0	0	0	0	0	0	-2.005467	0	0	0	0
2.802	-75.37117000000001	972.892273	22.531055	1.298783	0	-0.44363	0	0	0	0	0	0	0	-2.092479	0	0	0	0
2.8025	-76.43248	989.568115	23.275602	1.298123	0	-0.443522	0	0	0	0	0	0	0	-2.178551	0	0	0	0
2.803	-77.54188499999999	1005.847351	23.991182	1.297459	0	-0.443426	0	0	0	0	0	0	0	-2.263633	0	0	0	0
2.8035	-78.70085899999999	1021.713135	24.676304	1.296792	0	-0.443341	0	0	0	0	0	0	0	-2.347674	0	0	0	0
2.804	-79.910599	1037.150146	25.329596	1.296121	0	-0.443267	0	0	0	0	0	0	0	-2.430629	0	0	0	0
2.8045	-81.172028	1052.144531	25.949806	1.295448	0	-0.443204	0	0	0	0	0	0	0	-2.51245	0	0	0	0
2.805	-82.485794	1066.684448	26.535814	1.294771	0	-0.44315	0	0	0	0	0	0	0	-2.593095	0	0	0	0
2.8055	-83.852249	1080.759399	27.086624	1.294091	0	-0.443106	0	0	0	0	0	0	0	-2.672522	0	0	0	0
2.806	-85.271477	1094.36084	27.601377	1.293407	0	-0.443071	0	0	0	0	0	0	0	-2.750691	0	0	0	0
2.8065	-86.743279	1107.482178	28.07935	1.29272	0	-0.443044	0	0	0	0	0	0	0	-2.827567	0	0	0	0
2.807	-88.26720400000001	1120.118408	28.519945	1.29203	0	-0.443025	0	0	0	0	0	0	0	-2.903113	0	0	0	0
2.8075	-89.842545	1132.266357	28.922712	1.291335	0	-0.443013	0	0	0	0	0	0	0	-2.977299	0	0	0	0
2.808	-91.468338	1143.924927	29.287325	1.290636	0	-0.443008	0	0	0	0	0	0	0	-3.050094	0	0	0	0
2.8085	-93.14341	1155.094604	29.613594	1.289932	0	-0.443009	0	0	0	0	0	0	0	-3.121472	0	0	0	0
2.809	-94.866371	1165.77771	29.901461	1.289222	0	-0.443015	0	0	0	0	0	0	0	-3.191407	0	0	0	0
2.8095	-96.635643	1175.978394	30.150986	1.288506	0	-0.443027	0	0	0	0	0	0	0	-3.259878	0	0	0	0
2.81	-98.449471	1185.702759	30.36236	1.287784	0	-0.443042	0	0	0	0	0	0	0	-3.326865	0	0	0	0
2.8105	-100.305962	1194.958496	30.535887	1.287054	0	-0.443061	0	0	0	0	0	0	0	-3.392352	0	0	0	0
2.811	-102.203094	1203.754883	30.671982	1.286317	0	-0.443082	0	0	0	0	0	0	0	-3.456325	0	0	0	0
2.8115	-104.138748	1212.102905	30.771172	1.28557	0	-0.443106	0	0	0	0	0	0	0	-3.518772	0	0	0	0
2.812	-106.110718	1220.015137	30.83408	1.284813	0	-0.443132	0	0	0	0	0	0	0	-3.579686	0	0	0	0
2.8125	-108.116768	1227.505737	30.861422	1.284046	0	-0.443158	0	0	0	0	0	0	0	-3.639059	0	0	0	0
2.813	-110.15461	1234.59021	30.854004	1.283267	0	-0.443185	0	0	0	0	0	0	0	-3.69689	0	0	0	0
2.8135	-112.221977	1241.285522	30.812712	1.282476	0	-0.443212	0	0	0	0	0	0	0	-3.753178	0	0	0	0
2.814	-114.316605	1247.609619	30.738504	1.281672	0	-0.443238	0	0	0	0	0	0	0	-3.807925	0	0	0	0
2.8145	-116.436287	1253.581909	30.632401	1.280853	0	-0.443263	0	0	0	0	0	0	0	-3.861136	0	0	0	0
2.815	-118.578865	1259.222656	30.495485	1.280019	0	-0.443287	0	0	0	0	0	0	0	-3.912821	0	0	0	0
2.8155	-120.742256	1264.553467	30.32889	1.27917	0	-0.443308	0	0	0	0	0	0	0	-3.962988	0	0	0	0
2.816	-122.924484	1269.596191	30.133789	1.278303	0	-0.443327	0	0	0	0	0	0	0	-4.011651	0	0	0	0
2.8165	-125.123665	1274.373901	29.911398	1.277419	0	-0.443342	0	0	0	0	0	0	0	-4.058826	0	0	0	0
2.817	-127.33802	1278.910156	29.66296	1.276516	0	-0.443355	0	0	0	0	0	0	0	-4.104532	0	0	0	0
2.8175	-129.565903	1283.22876	29.389742	1.275595	0	-0.443364	0	0	0	0	0	0	0	-4.148789	0	0	0	0
2.818	-131.805756	1287.354248	29.093031	1.274654	0	-0.443369	0	0	0	0	0	0	0	-4.191622	0	0	0	0
2.8185	-134.056168	1291.311157	28.774122	1.273693	0	-0.44337	0	0	0	0	0	0	0	-4.233055	0	0	0	0
2.819	-136.315796	1295.124268	28.434326	1.272711	0	-0.443367	0	0	0	0	0	0	0	-4.273117	0	0	0	0
2.8195	-138.583405	1298.817993	28.074947	1.271708	0	-0.443359	0	0	0	0	0	0	0	-4.311838	0	0	0	0
2.82	-140.857834	1302.417114	27.697294	1.270684	0	-0.443347	0	0	0	0	0	0	0	-4.349253	0	0	0	0
2.8205	-143.13797	1305.945679	27.30267	1.269638	0	-0.44333	0	0	0	0	0	0	0	-4.385395	0	0	0	0
2.821	-145.422729	1309.427612	26.892366	1.268571	0	-0.443309	0	0	0	0	0	0	0	-4.420302	0	0	0	0
2.8215	-147.71106	1312.886108	26.467665	1.267482	0	-0.443284	0	0	0	0	0	0	0	-4.454013	0	0	0	0
2.822	-150.001862	1316.343994	26.029835	1.266372	0	-0.443254	0	0	0	0	0	0	0	-4.486569	0	0	0	0
2.8225	-152.293976	1319.82312	25.58013	1.265241	0	-0.44322	0	0	0	0	0	0	0	-4.518015	0	0	0	0
2.823	-154.586182	1323.344727	25.119785	1.264088	0	-0.443181	0	0	0	0	0	0	0	-4.548394	0	0	0	0
2.8235	-156.877106	1326.928955	24.650019	1.262916	0	-0.443139	0	0	0	0	0	0	0	-4.577753	0	0	0	0
2.824	-159.165237	1330.594849	24.172029	1.261723	0	-0.443093	0	0	0	0	0	0	0	-4.606142	0	0	0	0
2.8245	-161.448898	1334.360718	23.686998	1.260511	0	-0.443044	0	0	0	0	0	0	0	-4.633608	0	0	0	0
2.825	-163.726181	1338.243286	23.196083	1.259279	0	-0.442991	0	0	0	0	0	0	0	-4.660205	0	0	0	0
2.8255	-165.994904	1342.258545	22.700428	1.25803	0	-0.442936	0	0	0	0	0	0	0	-4.685986	0	0	0	0
2.826	-168.252686	1346.420776	22.201153	1.256763	0	-0.442878	0	0	0	0	0	0	0	-4.711003	0	0	0	0
2.8265	-170.49678	1350.743286	21.699362	1.255479	0	-0.442818	0	0	0	0	0	0	0	-4.735313	0	0	0	0
2.827	-172.724182	1355.237793	21.19614	1.25418	0	-0.442755	0	0	0	0	0	0	0	-4.758972	0	0	0	0
2.8275	-174.931564	1359.915039	20.692556	1.252865	0	-0.442691	0	0	0	0	0	0	0	-4.782037	0	0	0	0
2.828	-177.11525	1364.78418	20.189661	1.251536	0	-0.442626	0	0	0	0	0	0	0	-4.804567	0	0	0	0
